<?xml version="1.0" encoding="UTF-8"?>
<svg id="Layer_1" data-name="Layer 1" xmlns="http://www.w3.org/2000/svg" viewBox="0 0 1082.14 1080.63">
  <defs>
    <style>
      .cls-1 {
        fill: #ec1d33;
        stroke: #231f20;
        stroke-miterlimit: 10;
      }

      .cls-2 {
        fill: #fff;
        stroke-width: 0px;
      }
    </style>
  </defs>
  <rect class="cls-1" x=".5" y=".5" width="1081.14" height="1079.63"/>
  <g>
    <path class="cls-2" d="m318.74,441.73c0,31.17-10.83,56.27-32.48,75.3-20.67,18.21-46.84,27.32-78.5,27.32-51.35,0-90.15-26.17-116.4-78.5l57.83-34.95c17.35,32.16,37.31,48.23,59.9,48.23,10.47,0,19.8-3.05,27.99-9.15,9.16-6.59,13.75-15,13.75-25.23s-6.06-22.51-18.18-35.37c-4.75-5.11-15.07-14.18-30.95-27.21-29.65-24.25-49.79-42.44-60.44-54.57-21.95-24.74-32.92-48.75-32.92-72.02,0-26.55,10.09-48.59,30.27-66.12,19.2-16.88,42.24-25.32,69.15-25.32,36.26,0,71.12,19.44,104.59,58.32l-50.94,45.04c-17.83-25.1-35.99-37.65-54.48-37.65-7.53,0-14.32,1.98-20.37,5.92-6.87,4.61-10.31,10.53-10.31,17.77,0,6.09,2.05,11.85,6.14,17.28,5.73,7.57,22.52,23.12,50.36,46.64,26.69,22.48,42.58,36.34,47.66,41.59,25.55,26.09,38.33,53.65,38.33,82.69Z"/>
    <path class="cls-2" d="m748.57,173.24l-81.46,362h-66.2l-66.69-234.04-65.46,234.04h-65.46l-81.95-362h68.17l51.93,231.08,64.72-231.08h57.34l65.46,231.08,51.43-231.08h68.17Z"/>
    <path class="cls-2" d="m960.8,240.92h-65.95v294.33h-69.64V240.92h-64.23v-67.68h199.83v67.68Z"/>
  </g>
  <g>
    <path class="cls-2" d="m359.55,669.12c-8.86-9.56-22.27-15.3-35.88-15.3-30.48,0-47.99,24.87-47.99,49.73s18.16,48.58,47.77,48.58c13.62,0,27.24-6.31,36.1-15.3v33.47c-11.89,4.97-23.78,8.61-36.97,8.61-45.83,0-79.77-35-79.77-74.79s32.64-77.08,80.42-77.08c12.75,0,25.29,3.06,36.32,8.42v33.66Z"/>
    <path class="cls-2" d="m438.23,750.61h44.96v24.48h-76.74v-144.22h31.78v119.73Z"/>
    <path class="cls-2" d="m514.1,630.87h31.78v80.72c0,17.79,1.73,42.84,28.75,42.84s28.75-25.06,28.75-42.84v-80.72h31.78v86.26c0,35.19-16.86,61.78-60.53,61.78s-60.53-26.59-60.53-61.78v-86.26Z"/>
    <path class="cls-2" d="m679.25,630.87h39.56c30.26,0,48.85,10.52,48.85,39.21,0,10.33-4.11,22.19-14.27,27.93,19.24,3.06,27.89,20.27,27.89,36.15,0,28.31-22.48,40.93-52.1,40.93h-49.94v-144.22Zm31.78,60.06h3.89c15.56,0,23.13-4.02,23.13-18.94s-9.51-18.55-22.91-18.55h-4.11v37.49Zm0,61.59h6.7c17.08,0,31.78-1.91,31.78-20.66s-17.29-19.51-33.29-19.51h-5.19v40.17Z"/>
  </g>
  <g>
    <path class="cls-2" d="m99.55,973.72h-9.42v-11.51h23.32v25.9c-1.4,1.13-3.02,2.16-4.85,3.09-1.83.93-3.77,1.72-5.81,2.37-2.04.65-4.16,1.16-6.36,1.52-2.19.37-4.39.55-6.58.55-5.12,0-9.56-.76-13.31-2.29-3.75-1.52-6.88-3.64-9.37-6.35-2.5-2.71-4.36-5.93-5.58-9.65-1.22-3.73-1.83-7.79-1.83-12.19s.61-8.44,1.83-12.11c1.22-3.67,3.06-6.83,5.53-9.48,2.47-2.65,5.59-4.73,9.37-6.22,3.78-1.5,8.26-2.24,13.44-2.24,2.44,0,4.77.23,7,.68,2.23.45,4.27,1.03,6.13,1.74,1.86.71,3.55,1.47,5.08,2.29,1.52.82,2.83,1.6,3.93,2.33l-6.77,8.97c-1.52-.96-3.66-1.91-6.4-2.84-2.74-.93-5.73-1.4-8.96-1.4-4.94,0-8.75,1.55-11.43,4.66-2.68,3.1-4.02,7.65-4.02,13.63s1.37,10.95,4.12,14.05c2.74,3.1,6.49,4.66,11.25,4.66,2.19,0,4.04-.13,5.53-.38,1.49-.25,2.88-.66,4.16-1.23v-8.55Z"/>
    <path class="cls-2" d="m124.88,936.48h13.81v46.39h24.15v11.51h-37.96v-57.9Z"/>
    <path class="cls-2" d="m195.49,995.65c-4.94,0-9.25-.76-12.94-2.29-3.69-1.52-6.75-3.64-9.19-6.35-2.44-2.71-4.27-5.93-5.49-9.65-1.22-3.73-1.83-7.79-1.83-12.19s.61-8.44,1.83-12.11c1.22-3.67,3.05-6.83,5.49-9.48,2.44-2.65,5.5-4.73,9.19-6.22,3.69-1.5,8-2.24,12.94-2.24s9.25.75,12.94,2.24c3.69,1.5,6.75,3.57,9.19,6.22,2.44,2.65,4.27,5.81,5.49,9.48,1.22,3.67,1.83,7.7,1.83,12.11s-.61,8.46-1.83,12.19c-1.22,3.72-3.05,6.94-5.49,9.65-2.44,2.71-5.5,4.82-9.19,6.35-3.69,1.52-8,2.29-12.94,2.29Zm0-11.77c2.13,0,4.1-.39,5.9-1.18,1.8-.79,3.35-1.96,4.66-3.51,1.31-1.55,2.33-3.5,3.06-5.84.73-2.34,1.1-5.06,1.1-8.17,0-5.98-1.36-10.52-4.07-13.63-2.71-3.1-6.27-4.66-10.65-4.66s-7.94,1.55-10.66,4.66c-2.71,3.1-4.07,7.65-4.07,13.63s1.37,10.88,4.12,14.01c2.74,3.13,6.28,4.7,10.61,4.7Z"/>
    <path class="cls-2" d="m234.54,937.49c1.89-.34,3.96-.62,6.22-.85,1.89-.23,4.07-.42,6.54-.59,2.47-.17,5.04-.25,7.73-.25,7.07,0,12.32,1.4,15.73,4.19,3.41,2.79,5.12,6.42,5.12,10.88,0,3.1-.84,5.71-2.52,7.83-1.68,2.12-3.83,3.74-6.45,4.87,4.33,1.13,7.47,2.99,9.42,5.59,1.95,2.6,2.93,5.47,2.93,8.63,0,2.31-.46,4.54-1.37,6.69-.91,2.15-2.36,4.05-4.34,5.71-1.98,1.67-4.5,2.99-7.55,3.98-3.05.99-6.71,1.48-10.98,1.48-2.56,0-5.05-.07-7.45-.21-2.41-.14-4.59-.3-6.54-.47-2.26-.23-4.42-.45-6.49-.68v-56.8Zm13.81,21.42h5.85c2.68,0,4.56-.62,5.62-1.86,1.07-1.24,1.6-2.68,1.6-4.32s-.53-3.02-1.6-4.32c-1.07-1.3-3-1.95-5.81-1.95-.79,0-1.54.01-2.24.04-.7.03-1.3.07-1.78.13-.61.06-1.16.11-1.65.17v12.11Zm0,10.24v15.49c1.04.11,2.12.2,3.25.25,1.13.06,2.21.08,3.25.08,3.48,0,5.95-.86,7.41-2.58,1.46-1.72,2.2-3.82,2.2-6.31,0-1.8-.73-3.41-2.2-4.83-1.46-1.41-3.42-2.12-5.85-2.12h-8.05Z"/>
    <path class="cls-2" d="m328.47,994.38l-3.93-11h-23.14l-3.93,11h-14.54l22.86-57.99h15l22.22,57.99h-14.54Zm-21.13-22.43c.49,0,.97-.01,1.46-.04.49-.03.85-.04,1.1-.04h6.68c.55,0,1.16.01,1.83.04.67.03,1.43.04,2.29.04-1.95-5.81-3.55-10.89-4.8-15.24-1.25-4.35-2.24-8.01-2.97-11-.67,3.05-1.62,6.76-2.83,11.13-1.22,4.37-2.78,9.41-4.66,15.11h1.92Z"/>
    <path class="cls-2" d="m349.87,936.48h13.81v46.39h24.15v11.51h-37.96v-57.9Z"/>
  </g>
  <g>
    <path class="cls-2" d="m450.29,994.59c-5.38,0-10.08-.84-14.1-2.53-4.02-1.68-7.36-4.02-10.02-7.01-2.66-2.99-4.65-6.55-5.98-10.66-1.33-4.12-1.99-8.6-1.99-13.47s.66-9.32,1.99-13.37c1.33-4.05,3.32-7.54,5.98-10.47,2.66-2.93,6-5.22,10.02-6.87,4.02-1.65,8.72-2.48,14.1-2.48s10.08.83,14.1,2.48c4.02,1.65,7.36,3.94,10.02,6.87,2.66,2.93,4.65,6.42,5.98,10.47,1.33,4.05,1.99,8.51,1.99,13.37s-.67,9.35-1.99,13.47c-1.33,4.11-3.32,7.67-5.98,10.66-2.66,2.99-6,5.33-10.02,7.01-4.02,1.68-8.72,2.53-14.1,2.53Zm0-13c2.33,0,4.47-.44,6.43-1.31,1.96-.87,3.65-2.17,5.08-3.88,1.43-1.71,2.54-3.87,3.34-6.45.8-2.59,1.2-5.6,1.2-9.03,0-6.61-1.48-11.63-4.44-15.06-2.96-3.43-6.83-5.14-11.61-5.14s-8.66,1.72-11.61,5.14c-2.96,3.43-4.44,8.45-4.44,15.06s1.49,12.02,4.48,15.48c2.99,3.46,6.84,5.19,11.56,5.19Z"/>
    <path class="cls-2" d="m533.42,993.18l-2.39-3.65c-6.05-9.1-11.03-17.18-14.95-24.22-3.92-7.04-7.11-13.09-9.57-18.14.4,4.3.73,9.17,1,14.59.26,5.42.4,11.22.4,17.4v14.03h-15.05v-63.97h16.05l2.59,3.83c5.12,7.54,9.58,14.73,13.41,21.56,3.82,6.83,7.06,12.98,9.72,18.47-.2-2.18-.35-4.26-.45-6.22-.1-1.96-.15-3.66-.15-5.1v-32.55h15.15v63.97h-15.75Z"/>
    <path class="cls-2" d="m563.12,929.21h15.05v51.25h26.31v12.72h-41.36v-63.97Z"/>
    <path class="cls-2" d="m613.45,993.18v-63.97h15.05v63.97h-15.05Z"/>
    <path class="cls-2" d="m683.01,993.18l-2.39-3.65c-6.05-9.1-11.03-17.18-14.95-24.22-3.92-7.04-7.11-13.09-9.57-18.14.4,4.3.73,9.17,1,14.59.26,5.42.4,11.22.4,17.4v14.03h-15.05v-63.97h16.05l2.59,3.83c5.12,7.54,9.58,14.73,13.41,21.56,3.82,6.83,7.06,12.98,9.72,18.47-.2-2.18-.35-4.26-.45-6.22s-.15-3.66-.15-5.1v-32.55h15.15v63.97h-15.75Z"/>
    <path class="cls-2" d="m712.71,993.18v-63.97h45.25v12.72h-30.2v11.41h23.32v12.72h-23.32v14.4h32.29v12.72h-47.34Z"/>
  </g>
  <g>
    <path class="cls-2" d="m824.64,930.97c2.07-.37,4.27-.68,6.6-.93,2-.25,4.28-.47,6.84-.65,2.55-.19,5.22-.28,8-.28,5.43,0,10.25.78,14.45,2.33,4.2,1.56,7.76,3.77,10.67,6.63,2.91,2.86,5.11,6.27,6.6,10.22,1.49,3.95,2.23,8.35,2.23,13.21s-.66,9.33-1.99,13.44c-1.33,4.11-3.36,7.65-6.11,10.64-2.75,2.99-6.27,5.32-10.57,7-4.3,1.68-9.39,2.52-15.28,2.52-2.78,0-5.45-.08-8-.23-2.56-.16-4.83-.33-6.84-.51-2.33-.25-4.53-.5-6.6-.75v-62.63Zm21.44,10.36c-2.39,0-4.66.09-6.79.28v41.07c1.23.06,2.38.11,3.44.14,1.07.03,2.18.05,3.35.05,6.27,0,10.9-1.83,13.87-5.51,2.97-3.67,4.46-8.96,4.46-15.87s-1.47-11.6-4.41-15.03c-2.94-3.42-7.58-5.13-13.92-5.13Z"/>
    <path class="cls-2" d="m959.66,929.85l4.07,63.85h-14.36l-.87-22.12c-.13-2.86-.23-5.83-.29-8.91-.07-3.08-.1-6.11-.1-9.1,0-1.49.01-2.94.05-4.34.03-1.4.05-2.78.05-4.15-.52,2.37-1.2,5.06-2.04,8.07-.84,3.02-1.88,6.39-3.1,10.13-1.23,3.73-2.7,7.86-4.41,12.37-1.71,4.51-3.67,9.44-5.87,14.79l-1.36,3.27h-12.32l-1.94-4.85c-3.43-8.53-6.22-16.65-8.39-24.36-2.17-7.72-3.86-14.38-5.09-19.98v8.73c0,2.96-.07,5.74-.19,8.35l-.97,32.11h-14.26l4.46-63.85h16.59l4.75,12.69c3.1,8.28,5.59,15.45,7.47,21.52,1.88,6.07,3.36,11.19,4.46,15.35,1.42-5.29,3.38-11.81,5.87-19.56,2.49-7.75,5.77-16.57,9.85-26.46l1.46-3.55h16.49Z"/>
    <path class="cls-2" d="m1003.21,941.33c-4.66,0-8.42,1.71-11.3,5.13-2.88,3.42-4.32,8.43-4.32,15.03s1.46,11.99,4.37,15.45,6.66,5.18,11.25,5.18c3.43,0,6.39-.56,8.88-1.68,2.49-1.12,4.54-2.21,6.16-3.27l7.18,9.89c-1.16.81-2.49,1.68-3.98,2.61-1.49.93-3.15,1.81-5,2.61-1.84.81-3.86,1.48-6.06,2.01-2.2.53-4.59.79-7.18.79-5.24,0-9.81-.84-13.73-2.52-3.91-1.68-7.16-4.01-9.75-7-2.59-2.99-4.53-6.53-5.82-10.64-1.29-4.11-1.94-8.59-1.94-13.44s.65-9.3,1.94-13.35c1.29-4.04,3.23-7.53,5.82-10.45,2.58-2.92,5.83-5.21,9.75-6.86,3.91-1.65,8.49-2.47,13.73-2.47,2.59,0,4.98.27,7.18.79,2.2.53,4.22,1.2,6.06,2.01,1.84.81,3.51,1.68,5,2.61,1.49.93,2.81,1.81,3.98,2.61l-7.18,9.89c-1.62-1.06-3.67-2.15-6.16-3.27-2.49-1.12-5.45-1.68-8.88-1.68Z"/>
  </g>
</svg>